<?xml version="1.0" encoding="utf-8"?>
<!-- Generator: Adobe Illustrator 26.1.0, SVG Export Plug-In . SVG Version: 6.00 Build 0)  -->
<svg version="1.1" id="Layer_1" xmlns="http://www.w3.org/2000/svg" xmlns:xlink="http://www.w3.org/1999/xlink" x="0px" y="0px"
	 viewBox="0 0 535.25 483.81" style="enable-background:new 0 0 535.25 483.81;" xml:space="preserve">
<style type="text/css">
	.st0{fill:#282828;}
</style>
<g>
	<g>
		<g>
			<path class="st0" d="M311.52,228.77c0.01-0.07,0.03-0.15,0.04-0.23C311.41,228.13,310.95,228.79,311.52,228.77z"/>
			<path class="st0" d="M337.78,325.31l-0.51-0.14l-0.23-0.01l-0.52,0.09c-0.87,0.37-1.36,1.21-1.25,2.15
				c0.12,1,0.89,1.87,1.78,2.02l0.56-0.04l0.27-0.09l0.55-0.38c0.67-0.84,0.64-1.62,0.56-2.01
				C338.87,326.23,338.44,325.67,337.78,325.31z"/>
			<path class="st0" d="M175.67,152.66l0.04-0.02c-0.18-0.72-0.67-1.01-0.95-1.12l-0.58,0.03l-0.04-0.01
				c-0.44-0.07-0.88,0.04-1.26,0.32l-0.33,0.39l-0.1,0.2l-0.13,0.46c-0.01,0.1-0.04,0.32,0,0.59c-0.01,0.1-0.01,0.21,0,0.32
				l0.35,0.75l0.24,0.23l0.73,0.33c0.83,0.06,1.5-0.34,2.02-1.28l0.06-1.1L175.67,152.66z"/>
			<path class="st0" d="M476.23,260.85c-0.43,0.42-0.52,0.9-0.52,1.23l0.38,0.87l0.26,0.24c0.11,0.11,0.41,0.41,0.9,0.5
				c0.6,0.1,1.36-0.17,1.68-1.01l-0.11-0.51c0.03-0.21,0.09-0.71-0.24-1.18c-0.22-0.33-0.58-0.56-1.12-0.65
				c-0.01,0-0.03,0-0.04-0.01l-0.83,0.24L476.23,260.85z"/>
			<path class="st0" d="M382.69,292.28l0.22-0.36c0.26-0.66,0.22-1.34-0.1-1.91c-0.3-0.53-0.84-0.89-1.48-1
				c-0.56-0.09-1.12,0.02-1.58,0.33l-0.36,0.36l-0.17,0.28c-0.27,0.64-0.15,1.14-0.08,1.4l0.01,0l0,0.25l0.09,0.29l0.43,0.6
				c0.3,0.22,0.64,0.36,1,0.42c0.52,0.09,1.07,0,1.55-0.25L382.69,292.28z"/>
			<path class="st0" d="M255.8,59.82l-0.21,0.03l-0.45,0.15c-0.8,0.46-1.21,1.37-1.04,2.31c0.17,0.89,0.82,1.55,1.66,1.69
				c0.24,0.04,0.48,0.04,0.73-0.01l0.5-0.23l0.19-0.15l0.39-0.53c0.13-0.28,0.33-0.7,0.35-1.33l-0.19-0.69l-0.17-0.25l-0.56-0.46
				c0.14,0.05,0.24,0.14,0.24,0.14c0,0,0,0,0,0c-0.14-0.15-0.43-0.46-0.95-0.62L255.8,59.82z"/>
			<path class="st0" d="M348.49,136.15l0.15,0.08l0.83,0.09l0.34-0.09l0.69-0.51c0.55-0.87,0.38-1.6,0.22-1.96
				c-0.2-0.46-0.68-1.06-1.81-1.26l-0.78,0.13l-0.29,0.16l-0.53,0.59C347.09,133.93,346.74,135.33,348.49,136.15z"/>
			<path class="st0" d="M360.29,298.94l-0.02,0.02l-0.85-0.71c-1.24-0.12-1.77,0.58-1.94,0.89c-0.38,0.67-0.28,1.51,0.27,2.26
				l0.46,0.39l0.41,0.17l0.1,0.02c0.59,0.1,1.01-0.1,1.21-0.19l-0.01-0.04l0.3-0.11l0.22-0.16l0.4-0.5
				C360.95,300.68,361.28,299.65,360.29,298.94z"/>
			<path class="st0" d="M376.6,189.9l0.47-0.53c0.18-0.41,0.2-0.86,0.05-1.25c-0.11-0.29-0.37-0.69-0.95-0.94l-0.65-0.08l-0.47,0.07
				l-0.97,0.87c-0.13,0.51-0.05,1.01,0.21,1.42c0.26,0.4,0.68,0.66,1.17,0.74l0.12,0.02l0.75-0.16L376.6,189.9z"/>
			<path class="st0" d="M419.96,297.95c0.37-0.42,0.5-1,0.35-1.54l-0.29-0.5l-0.17-0.18l-0.5-0.3l-0.35-0.08
				c-0.45-0.08-0.88-0.01-1.29,0.18l-0.49,0.41l-0.24,0.39c-0.18,0.48-0.13,0.99,0.11,1.4c0.25,0.43,0.68,0.72,1.18,0.81
				C418.9,298.63,419.54,298.42,419.96,297.95z"/>
			<path class="st0" d="M398.73,117.99l-0.05-0.24l-0.19-0.3l-0.69-0.49l-0.26-0.06c-0.8-0.13-1.51,0.12-1.95,0.69l-0.11,0.47
				l-0.01,0c-0.56,1.06-0.04,1.8,0.21,2.08l0.73,0.35l-0.01,0.02c0.14,0.07,0.39,0.2,0.7,0.25c0.69,0.12,1.33-0.16,1.73-0.75
				l0.14-0.26l0.08-0.22c0.18-0.79-0.15-1.33-0.29-1.54L398.73,117.99z"/>
			<path class="st0" d="M172.12,400.11l-0.21-0.22l-0.65-0.34l-0.56-0.09l-0.88,0.2l-0.3,0.21l-0.48,0.76l-0.04,0.23l0.32,1.02
				l0.3,0.31l0.65,0.34l0.29,0.07c0.73,0.12,1.2-0.2,1.42-0.42c0.36-0.36,0.53-0.87,0.45-1.41L172.12,400.11z"/>
			<path class="st0" d="M443.02,152.18l-0.01,0.02l-0.37-0.14l-0.36,0.02l-0.81,0.37c-0.43,0.46-0.67,1.02-0.82,1.46l-0.01,0.77
				l0.1,0.3l0.47,0.61c0.25,0.16,0.52,0.27,0.81,0.32c1.12,0.19,2.26-0.62,2.44-1.72c0.08-0.48-0.03-0.95-0.31-1.32
				C443.98,152.62,443.63,152.29,443.02,152.18z"/>
			<path class="st0" d="M290.08,395.32l-0.01-0.05l-0.02-0.02l-0.03-0.07l-0.21-0.2l-0.01,0.01l-0.03-0.04l-0.01,0.01l-0.56-0.57
				l-0.22-0.04c-1.22-0.21-2.21,0.48-2.44,1.72l0.28,1.01l0.18,0.2c0.34,0.56,0.84,0.73,1.13,0.78l0.59-0.05l0.24-0.08l0.18-0.12
				l0.01,0.03c1.1-0.45,1.24-1.34,1.22-1.84L290.08,395.32z"/>
			<path class="st0" d="M336.68,277.56l-0.72-0.82c-0.17-0.15-0.49-0.42-0.98-0.5c-0.1-0.02-0.2-0.02-0.3-0.02l-0.06-0.03
				l-0.93,0.19l-0.31,0.22l-0.49,0.81c-0.08,0.61,0.11,1.06,0.21,1.22l0.52,0.84l0.36,0.24c0.22,0.14,0.53,0.31,1.06,0.4l0.01,0
				l0.94-0.25l0.3-0.25l0.22-0.46c-0.01,0.01-0.01,0.01-0.02,0.02l0.31-1.16L336.68,277.56z"/>
			<path class="st0" d="M348.46,169.07l-0.04-0.3l-0.17-0.31l-0.69-0.55l-0.34-0.08c-0.46-0.08-0.89-0.01-1.3,0.18l-0.39,0.3
				l-0.21,0.26c-0.4,0.68-0.33,1.42,0.15,1.97l0.01,0.03l0.6,0.64l0.46,0.14c0.59,0.1,1.09-0.12,1.41-0.46l0.11-0.07l0.5-0.67
				c0.16-0.55,0.01-0.97-0.03-1.1L348.46,169.07z"/>
			<path class="st0" d="M322.19,413.16l-0.15-0.7c0.11-0.17,0.19-0.34,0.24-0.46l0.16-0.69l-0.02-0.29l-0.26-0.64
				c-0.3-0.37-0.76-0.94-1.55-1.07c-0.37-0.06-0.76-0.01-1.13,0.15l-0.48,0.4l-0.15,0.22l-0.21,0.59c-0.02,0.27-0.07,0.5-0.12,0.72
				c-0.13,0.57-0.31,1.35,0.04,2.29l0.32,0.47l0.18,0.16l0.52,0.27l0.1,0.02c0.3,0.05,0.57,0.02,0.81-0.03l0.25,0.12
				c1.35-0.27,1.7-1.23,1.57-2.08C322.33,412.71,322.33,412.95,322.19,413.16z"/>
			<path class="st0" d="M456.53,304.12c-0.14-0.45-0.49-0.82-0.96-0.98l-0.24,0.01l-0.4-0.09l-0.05-0.05l-0.1,0.02l-0.03-0.01
				l-0.11,0.03l-0.68,0.11l-0.31,0.2l-0.57,0.9c-0.54,1.52,0.56,2.2,1.06,2.43l1.1-0.07l0.25-0.16c1.16-0.38,1.24-1.39,1.24-1.7
				L456.53,304.12z"/>
			<path class="st0" d="M404.33,254.73l-0.26-0.59l-0.17-0.21l-0.53-0.37c-0.15-0.05-0.3-0.09-0.44-0.11
				c-0.99-0.17-1.83,0.33-2.13,1.26l-0.04,0.55l0.04,0.24l0.24,0.54c0.29,0.37,0.73,0.63,1.22,0.71c0.59,0.1,1.16-0.07,1.57-0.47
				C404.23,255.88,404.41,255.32,404.33,254.73z"/>
			<path class="st0" d="M377.2,331.31c-0.78-0.13-1.52,0.26-1.85,0.97l-0.11,0.56l0.01,0.24l0.16,0.52
				c0.37,0.63,0.96,1.04,1.71,1.16l0.75-0.12l0.32-0.17l0.56-0.66c0.17-0.51,0.1-1.08-0.18-1.55
				C378.28,331.75,377.76,331.4,377.2,331.31z"/>
			<path class="st0" d="M462.01,408.56c-0.21-0.04-0.45-0.04-0.73-0.03l-0.8,0.38l-0.25,0.27l-0.31,0.99
				c-0.01,0.43,0.02,0.91,0.52,1.54l0.83,0.31l0.07,0.08l0.21,0.06l0.25,0.04l0.88-0.19l0.28-0.19l0.47-0.68
				c0.12-0.46,0.22-1.16-0.19-1.79C462.95,408.91,462.54,408.65,462.01,408.56z"/>
			<path class="st0" d="M179.13,338.08l1.18,0.18l0.43-0.19l0.7-1.02c0.03-0.59-0.18-1.4-1.33-1.92l-1.12,0.08l-0.37,0.23
				l-0.54,0.99c0,1.01,0.74,1.49,1.03,1.68L179.13,338.08z"/>
			<path class="st0" d="M331.84,74.04l0.5-0.84l0.06,0.93l0.46-0.03l1-0.7c0.38-0.88,0.02-1.78-0.9-2.18l-0.55-0.1l-0.46,0.03
				l-1,0.7C330.57,72.7,330.93,73.6,331.84,74.04z"/>
			<path class="st0" d="M305.48,164.83l0.29,0.03l0.71-0.23l0.25-0.18l0.43-0.59c0.13-0.39,0.11-0.79-0.04-1.15
				c-0.1-0.52-0.48-0.96-1.02-1.15l-0.53-0.05l-0.23,0.03l-0.5,0.19c-0.58,0.39-0.88,1.11-0.73,1.8
				C304.25,164.21,304.79,164.72,305.48,164.83z"/>
			<path class="st0" d="M90.36,295.21l-0.63-0.57c-0.31-0.18-0.59-0.28-0.88-0.33c-0.5-0.08-0.99,0.02-1.43,0.29l-0.43,0.47
				l-0.12,0.24l-0.03,0.18l-0.31,0.63l-0.01,0.4l0.37,0.88c0.18,0.17,0.67,0.64,1.41,0.76c0.73,0.12,1.46-0.14,2-0.73l0.24-0.98
				l0.04,0.01l0.05-0.29l-0.13-0.69L90.36,295.21z"/>
			<path class="st0" d="M351.97,208.77l-0.18-0.14l-0.61-0.25c-0.65-0.11-1.12,0.07-1.4,0.24l-0.38,0.38l-0.12,0.2l-0.18,0.52
				c-0.09,1.05,0.56,1.91,1.6,2.08l0.2,0.02l0.75-0.19l0.27-0.18l0.47-0.63c0.22-0.73,0.07-1.29-0.1-1.64L351.97,208.77z"/>
			<path class="st0" d="M319.59,250.74l0.76,0.41c1.16,0.14,1.92-0.36,2.26-1.52c0.02-0.07,0.04-0.16,0.08-0.25l-0.01-0.94
				l-0.16-0.35l-0.36-0.33l0.06-0.05c-0.13-0.17-0.49-0.61-1.41-0.77c-0.02,0-0.04-0.01-0.06-0.01c-0.34,0-0.9,0.1-1.33,0.68
				c-0.28,0.19-0.49,0.48-0.6,0.84l-0.03,0.56l0.04,0.24l0.24,0.42l0.27,0.81L319.59,250.74z"/>
			<path class="st0" d="M221.27,157.26l-0.79-0.25l-0.34,0.02l-0.77,0.34c-0.09,0.09-0.19,0.16-0.34,0.28
				c-0.35,0.27-0.78,0.61-1.12,1.18l-0.17,0.52l-0.02,0.24l0.09,0.55c0.22,0.51,0.67,0.87,1.2,0.96l0.32,0l0.6,0.11
				c0.76-0.28,1.12-0.74,1.34-1.03c-0.14,0.17-0.41,0.29-0.58,0.28l1.05-0.58l0.23-0.39l-0.01-1.23
				C221.86,158.03,221.69,157.6,221.27,157.26z"/>
			<path class="st0" d="M457.23,191.14l0.12-0.21c0.43-1.02-0.03-1.73-0.19-1.97l-0.04,0.02l-0.11-0.3l-0.2-0.25l-0.64-0.41
				l-0.21-0.04c-0.31-0.05-0.54-0.03-0.46-0.01l-0.03,0.11l-0.98,0.03l-0.11,0.08c-0.69,0.2-0.98,0.68-1.09,0.97l-0.07,0.68
				l0.1,0.43c0.17,0.38,0.69,1.55,1.89,1.75c0.43,0.07,1.09,0.04,1.77-0.56L457.23,191.14z"/>
			<path class="st0" d="M296.75,293.87c-0.19-0.31-0.55-0.87-1.43-1.02c-0.16-0.03-0.38-0.04-0.68-0.04l-0.83,0.34l-0.26,0.26
				l-0.35,0.82c0-0.21,0.11-0.42,0.15-0.47c-0.08,0.09-0.23,0.26-0.35,0.51l-0.07,0.83l0.09,0.33l0.09,0.11
				c-0.01,0.04-0.02,0.08-0.02,0.11c-0.12,0.74,0.3,1.43,1.01,1.68c0.16,0.09,0.33,0.15,0.51,0.18c0.68,0.11,1.35-0.26,1.63-0.9
				l0-0.49c0.17-0.13,0.32-0.28,0.46-0.44l0.28-0.69l0.02-0.31L296.75,293.87z"/>
			<path class="st0" d="M245.13,116.36l-0.19-0.66l-0.16-0.25l-0.32-0.27l0.03-0.04c-0.14-0.13-0.47-0.45-1.1-0.55l-0.83,0.17
				l-0.2,0.13l-0.01-0.03c-1.63,0.32-1.69,1.39-1.63,1.84l0.12,0.1l0.34,0.94l0.32,0.27c0.1,0.1,0.41,0.41,0.95,0.5l0.22,0.02
				l0.88-0.33c0.29-0.03,0.63-0.12,0.95-0.39C244.78,117.58,245.12,117.13,245.13,116.36z"/>
			<path class="st0" d="M449.54,108.38l0.22,0.06c0.46,0.08,0.81-0.05,0.98-0.12l0.21-0.05l0.37-0.19l0.62-0.85l0.11-0.68l-0.1-0.71
				l-0.13-0.27l-0.56-0.56c-0.33-0.22-0.67-0.36-1.01-0.42c-0.49-0.08-0.94,0.02-1.32,0.28l-0.34,0.35l-0.19,0.33
				c-0.34,0.92,0.02,1.57,0.18,1.86l0.04-0.01l0.12,0.33l0.17,0.23L449.54,108.38z"/>
			<path class="st0" d="M214.54,298.37l-0.33-0.03l-0.78,0.27l-0.26,0.22l-0.41,0.71l-0.09,0.56l0.16,0.82l0.18,0.29l0.73,0.52
				l0.15,0.03c0.45,0.08,0.79-0.04,0.9-0.08l-0.02-0.06l0.29-0.04l0.31-0.17l0.54-0.65c0.19-0.56,0.15-1.12-0.13-1.58
				C215.53,298.75,215.08,298.46,214.54,298.37z"/>
			<path class="st0" d="M389.76,215.05c-0.14-0.47-0.52-0.86-1.14-1.06l-0.26-0.04c-1.11-0.04-2.01,0.73-2.16,1.84l0.22,0.85
				l0.22,0.29l0.75,0.46l0.68,0.11l0.94-0.25l0.3-0.25l0.17-0.33l0.06,0.05c0.09-0.12,0.33-0.43,0.38-0.94l-0.15-0.7L389.76,215.05z
				"/>
			<path class="st0" d="M300.18,329.42l0.02-0.01c-0.17-0.7-0.64-1-0.92-1.12c-0.17-0.12-0.38-0.21-0.6-0.26l-0.96,0.23l-0.31,0.25
				l-0.44,0.9c-0.03,1.17,0.6,1.7,0.97,1.91l1.06,0.05l0.08-0.04l0.03,0.03c0.68-0.16,0.98-0.62,1.1-0.88l-0.03-1.04L300.18,329.42z
				"/>
			<path class="st0" d="M403.22,157.37l-1.31,0.93c0.04-0.08,0.09-0.14,0.14-0.18c-0.24,0.17-0.88,0.61-0.9,1.45l0.1,0.51
				c0.22,0.49,0.58,0.83,1.04,0.99l0.25,0.35c1.25,0.21,2.32-0.78,2.49-1.8c0.08-0.5-0.03-0.99-0.31-1.39
				C404.5,157.92,404.05,157.51,403.22,157.37z"/>
			<path class="st0" d="M438.42,225.06c0.23,0.04,0.48,0.04,0.76,0l0.67-0.35l0.22-0.23l0.29-0.53c0.11-0.2,0.33-0.61,0.31-1.25
				l-0.2-0.62l-0.15-0.23l-0.32-0.32c-0.14-0.13-0.48-0.44-1.05-0.54l-0.36-0.03l-0.62,0.28c-0.89,0.16-1.2,0.81-1.29,1.11
				l0.03,0.51c-0.01,0.02-0.01,0.05-0.02,0.07l0.06,0.72l0.12,0.28l0.52,0.6C437.55,224.68,437.87,224.97,438.42,225.06z"/>
			<path class="st0" d="M373.56,244.11c-0.19-1.09-1.18-1.73-2.08-1.88c-0.96-0.16-1.86,0.2-2.33,0.94l0.06,1.36l0.3,0.38l0.46,0.36
				c-0.19-0.08-0.31-0.2-0.32-0.2c0,0,0,0.01,0.01,0.02c0.22,0.3,0.72,1.02,1.75,1.19l0.11,0.02l0.82-0.18l0.23-0.15
				c0.87-0.43,1.01-1.21,1.01-1.63L373.56,244.11z"/>
			<path class="st0" d="M514.66,203.59l0.45,0.08l0.95-0.26l0.3-0.25l0.42-0.84c0.13-1.04-0.49-1.62-1.06-1.8l-0.43,0.07l0-0.03
				c-0.77-0.13-1.24,0.23-1.45,0.46c-0.36,0.4-0.49,0.95-0.34,1.52l0.34,0.57l0.21,0.19L514.66,203.59z"/>
			<path class="st0" d="M328.05,205.43l0.42-0.37l0.21-0.32c0.25-0.58,0.22-1.23-0.07-1.78c-0.31-0.56-0.89-0.96-1.55-1.07
				c-0.6-0.1-1.18,0.06-1.59,0.42c-0.44,0.39-0.68,0.96-0.66,1.61l0.04,0.29l0.06,0.2c0.26,0.63,0.9,1.09,1.71,1.23
				C327.15,205.73,327.64,205.65,328.05,205.43z"/>
			<path class="st0" d="M378.26,393.1l-0.92,0.07l-0.52,0.28c-0.12,0.08-0.42,0.3-0.62,0.72l-0.06,0.83l0.1,0.33l0.48,0.64
				l0.63,0.25c0.86,0.14,1.71-0.4,1.94-1.25C379.49,394.16,379.04,393.37,378.26,393.1z"/>
			<path class="st0" d="M251.9,180.02l-0.25-0.36c-0.49-0.08-0.98,0.03-1.38,0.32c-0.43,0.3-0.72,0.78-0.81,1.32
				c-0.17,1.03,0.44,2.19,1.92,2.44l1.36-0.97l0.02-0.1l0.01-0.01c0.11-0.25,0.28-0.63,0.31-1.18l-0.21-0.73
				C252.55,180.34,252.21,180.12,251.9,180.02z"/>
			<path class="st0" d="M215.94,198.06c-0.1-0.02-0.21-0.03-0.32-0.04l-0.83,0.24l-0.28,0.22l-0.44,0.74l-0.09,0.56l0.27,0.96
				l0.26,0.3l0.32,0.17l-0.02,0.02c0.13,0.13,0.47,0.47,1.07,0.57l0.81-0.16l0.29-0.18l0.25-0.03l0.35-0.26l0.49-1.01
				C218.04,199.74,217.83,198.38,215.94,198.06z"/>
			<path class="st0" d="M278.6,213.68l-0.2-0.28c-0.1-0.1-0.4-0.41-0.93-0.5l-0.21-0.02l-0.9,0.33l-0.26,0.25l-0.36,0.75
				c-0.16,1.06,0.47,1.65,1.06,1.84l0.86-0.11l0.02,0.03c0.74-0.16,1.04-0.66,1.16-0.94l-0.04-0.98L278.6,213.68z"/>
			<path class="st0" d="M205.65,263.25l0.02,0.24c-0.23,0.73-0.94,1.17-1.69,1.05l0.15-0.88l-0.14,0.26l0.18-0.55l-0.04-0.03
				l-0.16,0.08l0.01-0.19l-0.15-0.12l-0.33,0.18c0.08,0.11,0.18,0.19,0.27,0.24l-0.29,0.14l-0.14-0.29l-0.55,0.29
				c-0.27-0.51-0.31-1.08-0.1-1.56l0.71-0.69l0.71-0.18c0.61,0.04,1.07,0.29,1.36,0.74C205.63,262.21,205.8,262.65,205.65,263.25
				L205.65,263.25z M203.73,262.87l0.02,0.01c-0.02-0.1-0.03-0.21,0.02-0.32l0.25-0.16c0.05,0,0.07,0.02,0.11,0.02l0.19-0.21
				c-0.4-0.05-0.74,0.19-0.87,0.48l-0.09-0.02c-0.01,0.05-0.02,0.12-0.01,0.19L203.73,262.87z"/>
			<path class="st0" d="M261.58,269.38l-0.61-0.29c0.06,0.03,0.13,0.08,0.19,0.14l-0.89-0.36l-0.38,0.01l-0.86,0.41
				c-0.45,0.53-0.66,1.15-0.6,1.75l1.12-0.11c0.13,0.11,0.27,0.2,0.42,0.27l0,0.02l0.06,0c0,0,0.01,0,0.01,0.01l0.25,0.15l0,0l0,0
				l1,0.62c-0.11,0.18-0.24,0.27-0.24,0.27c0,0,0,0,0.01,0c1.16-0.6,1.25-1.63,0.94-2.39L261.58,269.38z"/>
			<path class="st0" d="M157.06,230.07l0.5,0.07c1.52-0.12,1.95-1.18,2.1-1.8l0.02-0.25c-0.04-0.9-0.67-1.61-1.59-1.76
				c-0.56-0.09-1.17,0.03-1.63,0.33l-0.38,0.4l-0.12,0.21l-0.16,0.51l-0.02,0.22c-0.07,0.73,0.1,1.19,0.63,1.73l0.43,0.28
				L157.06,230.07z"/>
			<path class="st0" d="M238.42,253.74l-0.53,0.14c-0.94,0-1.45,0.58-1.61,1.13l-0.04,0.47l0.02,0.21l0.12,0.26l0.12,0.87
				c0.26,0.36,0.65,0.61,1.11,0.69c0.42,0.07,0.8-0.01,1.16-0.08l0.56-0.29l0.2-0.19l0.34-0.56c0.07-0.27,0.29-1.08-0.18-1.82
				C239.42,254.14,238.97,253.84,238.42,253.74z"/>
			<path class="st0" d="M431.66,352.86l-0.52-0.63c-0.13-0.11-0.26-0.21-0.42-0.3l-1.04-0.07l-0.37,0.15l-0.68,0.75
				c-0.34,1.15,0.29,2.01,1.09,2.27l0.9-0.1l0.02,0.02c0.71-0.17,1.01-0.66,1.12-0.93l0.02-0.84L431.66,352.86z"/>
			<path class="st0" d="M285.9,141.19l-0.04-0.23l-0.22-0.51c-0.34-0.45-0.84-0.75-1.41-0.85c-0.58-0.1-1.17,0.04-1.63,0.38
				c-0.48,0.36-0.79,0.9-0.87,1.51l0.35,1l0.21,0.2l0.03,0.11l0.29,0.32l1.05,0.37c1.45-0.23,2-1.08,2.21-1.76L285.9,141.19z"/>
			<path class="st0" d="M293.64,264.59l0.13-0.93l-0.04-0.14c-0.04-0.59-0.43-1.1-1.03-1.3l-0.12,0.01
				c-0.12-0.08-0.26-0.16-0.45-0.22l-0.56-0.04l-0.24,0.04l-0.52,0.23c-0.36,0.28-0.56,0.61-0.8,1.01l-0.17,0.66l0.01,0.3l0.24,0.66
				c0.4,0.53,0.86,0.68,1.09,0.75c-0.08-0.03-0.19-0.09-0.24-0.15l0.76,0.36l0.35,0.02l0.8-0.24
				C293.21,265.32,293.41,264.99,293.64,264.59z"/>
			<path class="st0" d="M370.67,271.05l-0.46,0.04l-1.02,0.79c-0.14,0.29-0.46,0.97-0.13,1.74c0.2,0.43,0.56,0.76,1.02,0.91
				l0.55,0.05l0.23-0.04l0.51-0.21c0.89-0.64,0.83-2.05,0.4-2.74L370.67,271.05z"/>
			<path class="st0" d="M282.08,362.12c-0.23-0.04-0.46-0.02-0.68,0.04l-0.54-0.01c-0.83,0.44-1,1.13-1.04,1.37l-0.17,0.6l0,0.27
				l0.16,0.6c0.26,0.46,0.71,0.77,1.23,0.86c0.24,0.04,0.44,0.03,0.41,0l0.01-0.03l0.34,0.06l0.99-0.29
				c0.64-0.58,0.77-1.58,0.56-2.27C283.16,362.67,282.69,362.23,282.08,362.12z"/>
			<path class="st0" d="M238.27,330.69l-0.34-0.44c-0.17-0.14-0.45-0.32-0.85-0.39c-0.05-0.01-0.09-0.01-0.11-0.01l-0.01,0.03
				l-0.54-0.09l-0.32,0.06l-0.69,0.39c-0.7,0.81-0.63,1.56-0.53,1.92c0.09,0.38,0.4,1.08,1.39,1.45l0.88-0.02l0.33-0.14l0.67-0.71
				c0.12-0.27,0.31-0.68,0.33-1.29l-0.11-0.54L238.27,330.69z"/>
		</g>
	</g>
</g>
<g>
	<path class="st0" d="M240.14,247.11c0.07,0.01,0.15,0.03,0.23,0.04C240.77,247,240.12,246.54,240.14,247.11z"/>
	<path class="st0" d="M143.6,273.38l0.14-0.51l0.01-0.23l-0.09-0.52c-0.37-0.87-1.21-1.36-2.15-1.25c-1,0.12-1.87,0.89-2.02,1.78
		l0.04,0.56l0.09,0.27l0.38,0.55c0.84,0.67,1.62,0.64,2.01,0.56C142.68,274.46,143.24,274.03,143.6,273.38z"/>
	<path class="st0" d="M316.25,111.26l0.02,0.04c0.72-0.18,1.01-0.67,1.12-0.95l-0.03-0.58l0.01-0.04c0.07-0.44-0.04-0.88-0.32-1.26
		l-0.39-0.33l-0.2-0.1L316,107.9c-0.1-0.01-0.32-0.04-0.59,0c-0.1-0.01-0.21-0.01-0.32,0l-0.75,0.35l-0.23,0.24l-0.33,0.73
		c-0.06,0.83,0.34,1.5,1.28,2.02l1.1,0.06L316.25,111.26z"/>
	<path class="st0" d="M208.05,411.83c-0.42-0.43-0.9-0.52-1.23-0.52l-0.87,0.38l-0.24,0.26c-0.11,0.11-0.41,0.41-0.5,0.9
		c-0.1,0.6,0.17,1.36,1.01,1.68l0.51-0.11c0.21,0.03,0.71,0.09,1.18-0.24c0.33-0.22,0.56-0.58,0.65-1.12c0-0.01,0-0.03,0.01-0.04
		l-0.24-0.83L208.05,411.83z"/>
	<path class="st0" d="M176.63,318.29l0.36,0.22c0.66,0.26,1.34,0.22,1.91-0.1c0.53-0.3,0.89-0.84,1-1.48
		c0.09-0.56-0.02-1.12-0.33-1.58l-0.36-0.36l-0.28-0.17c-0.64-0.27-1.14-0.15-1.4-0.08l0,0.01l-0.25,0l-0.29,0.09l-0.6,0.43
		c-0.22,0.3-0.36,0.64-0.42,1c-0.09,0.52,0,1.07,0.25,1.55L176.63,318.29z"/>
	<path class="st0" d="M409.09,191.4l-0.03-0.21l-0.15-0.45c-0.46-0.8-1.37-1.21-2.31-1.04c-0.89,0.17-1.55,0.82-1.69,1.66
		c-0.04,0.24-0.04,0.48,0.01,0.73l0.23,0.5l0.15,0.19l0.53,0.39c0.28,0.13,0.7,0.33,1.33,0.35l0.69-0.19l0.25-0.17l0.46-0.56
		c-0.05,0.14-0.14,0.24-0.14,0.24c0,0,0,0,0,0c0.15-0.14,0.46-0.43,0.62-0.95L409.09,191.4z"/>
	<path class="st0" d="M332.75,284.08l-0.08,0.15l-0.09,0.83l0.09,0.34l0.51,0.69c0.87,0.55,1.6,0.38,1.96,0.22
		c0.46-0.2,1.06-0.68,1.26-1.81l-0.13-0.78l-0.16-0.29l-0.59-0.53C334.98,282.68,333.58,282.34,332.75,284.08z"/>
	<path class="st0" d="M169.96,295.89l-0.02-0.02l0.71-0.85c0.12-1.24-0.58-1.77-0.89-1.94c-0.67-0.38-1.51-0.28-2.26,0.27
		l-0.39,0.46l-0.17,0.41l-0.02,0.1c-0.1,0.59,0.1,1.01,0.19,1.21l0.04-0.01l0.11,0.3l0.16,0.22l0.5,0.4
		C168.23,296.55,169.25,296.87,169.96,295.89z"/>
	<path class="st0" d="M279.01,312.2l0.53,0.47c0.41,0.18,0.86,0.2,1.25,0.05c0.29-0.11,0.69-0.37,0.94-0.95l0.08-0.65l-0.07-0.47
		l-0.87-0.97c-0.51-0.13-1.01-0.05-1.42,0.21c-0.4,0.26-0.66,0.68-0.74,1.17l-0.02,0.12l0.16,0.75L279.01,312.2z"/>
	<path class="st0" d="M170.95,355.56c0.42,0.37,1,0.5,1.54,0.35l0.5-0.29l0.18-0.17l0.3-0.5l0.08-0.35
		c0.08-0.45,0.01-0.88-0.18-1.29l-0.41-0.49l-0.39-0.24c-0.48-0.18-0.99-0.13-1.4,0.11c-0.43,0.25-0.72,0.68-0.81,1.18
		C170.28,354.5,170.49,355.14,170.95,355.56z"/>
	<path class="st0" d="M350.91,334.33l0.24-0.05l0.3-0.19l0.49-0.69l0.06-0.26c0.13-0.8-0.12-1.51-0.69-1.95l-0.47-0.11l0-0.01
		c-1.06-0.56-1.8-0.04-2.08,0.21l-0.35,0.73l-0.02-0.01c-0.07,0.14-0.2,0.39-0.25,0.7c-0.12,0.69,0.16,1.33,0.75,1.73l0.26,0.14
		l0.22,0.08c0.79,0.18,1.33-0.15,1.54-0.29L350.91,334.33z"/>
	<path class="st0" d="M68.79,107.71l0.22-0.21l0.34-0.65l0.09-0.56l-0.2-0.88l-0.21-0.3l-0.76-0.48l-0.23-0.04l-1.02,0.32l-0.31,0.3
		l-0.34,0.65l-0.07,0.29c-0.12,0.73,0.2,1.2,0.42,1.42c0.36,0.36,0.87,0.53,1.41,0.45L68.79,107.71z"/>
	<path class="st0" d="M316.73,378.61l-0.02-0.01l0.14-0.37l-0.02-0.36l-0.37-0.81c-0.46-0.43-1.02-0.67-1.46-0.82l-0.77-0.01
		l-0.3,0.1l-0.61,0.47c-0.16,0.25-0.27,0.52-0.32,0.81c-0.19,1.12,0.62,2.26,1.72,2.44c0.48,0.08,0.95-0.03,1.32-0.31
		C316.29,379.58,316.61,379.23,316.73,378.61z"/>
	<path class="st0" d="M73.59,225.67l0.05-0.01l0.02-0.02l0.07-0.03l0.2-0.21l-0.01-0.01l0.04-0.03l-0.01-0.01l0.57-0.56l0.04-0.22
		c0.21-1.22-0.48-2.21-1.72-2.44l-1.01,0.28l-0.2,0.18c-0.56,0.34-0.73,0.84-0.78,1.13l0.05,0.59l0.08,0.24l0.12,0.18l-0.03,0.01
		c0.45,1.1,1.34,1.24,1.84,1.22L73.59,225.67z"/>
	<path class="st0" d="M191.35,272.27l0.82-0.72c0.15-0.17,0.42-0.49,0.5-0.98c0.02-0.1,0.02-0.2,0.02-0.3l0.03-0.06l-0.19-0.93
		l-0.22-0.31l-0.81-0.49c-0.61-0.08-1.06,0.11-1.22,0.21l-0.84,0.52l-0.24,0.36c-0.14,0.22-0.31,0.53-0.4,1.06l0,0.01l0.25,0.94
		l0.25,0.3l0.46,0.22c-0.01-0.01-0.01-0.01-0.02-0.02l1.16,0.31L191.35,272.27z"/>
	<path class="st0" d="M299.84,284.05l0.3-0.04l0.31-0.17l0.55-0.69l0.08-0.34c0.08-0.46,0.01-0.89-0.18-1.3l-0.3-0.39l-0.26-0.21
		c-0.68-0.4-1.42-0.33-1.97,0.15l-0.03,0.01l-0.64,0.6l-0.14,0.46c-0.1,0.59,0.12,1.09,0.46,1.41l0.07,0.11l0.67,0.5
		c0.55,0.16,0.97,0.01,1.1-0.03L299.84,284.05z"/>
	<path class="st0" d="M55.74,257.79l0.7-0.15c0.17,0.11,0.34,0.19,0.46,0.24l0.69,0.16l0.29-0.02l0.64-0.26
		c0.37-0.3,0.94-0.76,1.07-1.55c0.06-0.37,0.01-0.76-0.15-1.13l-0.4-0.48l-0.22-0.15l-0.59-0.21c-0.27-0.02-0.5-0.07-0.72-0.12
		c-0.57-0.13-1.35-0.31-2.29,0.04l-0.47,0.32l-0.16,0.18l-0.27,0.52l-0.02,0.1c-0.05,0.3-0.02,0.57,0.03,0.81l-0.12,0.25
		c0.27,1.35,1.23,1.7,2.08,1.57C56.2,257.93,55.96,257.92,55.74,257.79z"/>
	<path class="st0" d="M164.78,392.13c0.45-0.14,0.82-0.49,0.98-0.96l-0.01-0.24l0.09-0.4l0.05-0.05l-0.02-0.1l0.01-0.03l-0.03-0.11
		l-0.11-0.68l-0.2-0.31l-0.9-0.57c-1.52-0.54-2.2,0.56-2.43,1.06l0.07,1.1l0.16,0.25c0.38,1.16,1.39,1.24,1.7,1.24L164.78,392.13z"
		/>
	<path class="st0" d="M214.18,339.93l0.59-0.26l0.21-0.17l0.37-0.53c0.05-0.15,0.09-0.3,0.11-0.44c0.17-0.99-0.33-1.83-1.26-2.13
		l-0.55-0.04l-0.24,0.04l-0.54,0.24c-0.37,0.29-0.63,0.73-0.71,1.22c-0.1,0.59,0.07,1.16,0.47,1.57
		C213.02,339.82,213.59,340.01,214.18,339.93z"/>
	<path class="st0" d="M137.6,312.8c0.13-0.78-0.26-1.52-0.97-1.85l-0.56-0.11l-0.24,0.01l-0.52,0.16c-0.63,0.37-1.04,0.96-1.16,1.71
		l0.12,0.75l0.17,0.32l0.66,0.56c0.51,0.17,1.08,0.1,1.55-0.18C137.15,313.87,137.51,313.36,137.6,312.8z"/>
	<path class="st0" d="M60.35,397.6c0.04-0.21,0.04-0.45,0.03-0.73l-0.38-0.8l-0.27-0.25l-0.99-0.31c-0.43-0.01-0.91,0.02-1.54,0.52
		l-0.31,0.83l-0.08,0.07l-0.06,0.21l-0.04,0.25l0.19,0.88l0.19,0.28l0.68,0.47c0.46,0.12,1.16,0.22,1.79-0.19
		C60,398.55,60.26,398.13,60.35,397.6z"/>
	<path class="st0" d="M130.82,114.73l-0.18,1.18l0.19,0.43l1.02,0.7c0.59,0.03,1.4-0.18,1.92-1.33l-0.08-1.12l-0.23-0.37l-0.99-0.54
		c-1.01,0-1.49,0.74-1.68,1.03L130.82,114.73z"/>
	<path class="st0" d="M394.87,267.44l0.84,0.5l-0.93,0.06l0.03,0.46l0.7,1c0.88,0.38,1.78,0.02,2.18-0.9l0.1-0.55l-0.03-0.46l-0.7-1
		C396.21,266.16,395.3,266.53,394.87,267.44z"/>
	<path class="st0" d="M304.08,241.08l-0.03,0.29l0.23,0.71l0.18,0.25l0.59,0.43c0.39,0.13,0.79,0.11,1.15-0.04
		c0.52-0.1,0.96-0.48,1.15-1.02l0.05-0.53l-0.03-0.23l-0.19-0.5c-0.39-0.58-1.11-0.88-1.8-0.73
		C304.7,239.84,304.19,240.38,304.08,241.08z"/>
	<path class="st0" d="M173.69,25.95l0.57-0.63c0.18-0.31,0.28-0.59,0.33-0.88c0.08-0.5-0.02-0.99-0.29-1.43l-0.47-0.43l-0.24-0.12
		l-0.18-0.03l-0.63-0.31l-0.4-0.01l-0.88,0.37c-0.17,0.18-0.64,0.67-0.76,1.41c-0.12,0.73,0.14,1.46,0.73,2l0.98,0.24l-0.01,0.04
		l0.29,0.05l0.69-0.13L173.69,25.95z"/>
	<path class="st0" d="M260.14,287.56l0.14-0.18l0.25-0.61c0.11-0.65-0.07-1.12-0.24-1.4l-0.38-0.38l-0.2-0.12l-0.52-0.18
		c-1.05-0.09-1.91,0.56-2.08,1.6l-0.02,0.2l0.19,0.75l0.18,0.27l0.63,0.47c0.73,0.22,1.29,0.07,1.64-0.1L260.14,287.56z"/>
	<path class="st0" d="M218.17,255.19l-0.41,0.76c-0.14,1.16,0.36,1.92,1.52,2.26c0.07,0.02,0.16,0.04,0.25,0.08l0.94-0.01l0.35-0.16
		l0.33-0.36l0.05,0.06c0.17-0.13,0.61-0.49,0.77-1.41c0-0.02,0.01-0.04,0.01-0.06c0-0.34-0.1-0.9-0.68-1.33
		c-0.19-0.28-0.48-0.49-0.84-0.6l-0.56-0.03l-0.24,0.04l-0.42,0.24l-0.81,0.27L218.17,255.19z"/>
	<path class="st0" d="M311.64,156.86l0.25-0.79l-0.02-0.34l-0.34-0.77c-0.09-0.09-0.16-0.19-0.28-0.34
		c-0.27-0.35-0.61-0.78-1.18-1.12l-0.52-0.17l-0.24-0.02l-0.55,0.09c-0.51,0.22-0.87,0.67-0.96,1.2l0,0.32l-0.11,0.6
		c0.28,0.76,0.74,1.12,1.03,1.34c-0.17-0.14-0.29-0.41-0.28-0.58l0.58,1.05l0.39,0.23l1.23-0.01
		C310.88,157.46,311.31,157.29,311.64,156.86z"/>
	<path class="st0" d="M277.77,392.82l0.21,0.12c1.02,0.43,1.73-0.03,1.97-0.19l-0.02-0.04l0.3-0.11l0.25-0.2l0.41-0.64l0.04-0.21
		c0.05-0.31,0.03-0.54,0.01-0.46l-0.11-0.03l-0.03-0.98l-0.08-0.11c-0.2-0.69-0.68-0.98-0.97-1.09l-0.68-0.07l-0.43,0.1
		c-0.38,0.17-1.55,0.69-1.75,1.89c-0.07,0.43-0.04,1.09,0.56,1.77L277.77,392.82z"/>
	<path class="st0" d="M175.03,232.34c0.31-0.19,0.87-0.55,1.02-1.43c0.03-0.16,0.04-0.38,0.04-0.68l-0.34-0.83l-0.26-0.26
		l-0.82-0.35c0.21,0,0.42,0.11,0.47,0.15c-0.09-0.08-0.26-0.23-0.51-0.35l-0.83-0.07l-0.33,0.09l-0.11,0.09
		c-0.04-0.01-0.08-0.02-0.11-0.02c-0.74-0.12-1.43,0.3-1.68,1.01c-0.09,0.16-0.15,0.33-0.18,0.51c-0.11,0.68,0.26,1.35,0.9,1.63
		l0.49,0c0.13,0.17,0.28,0.32,0.44,0.46l0.69,0.28l0.31,0.02L175.03,232.34z"/>
	<path class="st0" d="M352.55,180.72l0.66-0.19l0.25-0.16l0.27-0.32l0.04,0.03c0.13-0.14,0.45-0.47,0.55-1.1l-0.17-0.83l-0.13-0.2
		l0.03-0.01c-0.32-1.63-1.39-1.69-1.84-1.63l-0.1,0.12l-0.94,0.34l-0.27,0.32c-0.1,0.1-0.41,0.41-0.5,0.95l-0.02,0.22l0.33,0.88
		c0.03,0.29,0.12,0.63,0.39,0.95C351.33,180.37,351.78,180.71,352.55,180.72z"/>
	<path class="st0" d="M360.52,385.13l-0.06,0.22c-0.08,0.46,0.05,0.81,0.12,0.98l0.05,0.21l0.19,0.37l0.85,0.62l0.68,0.11l0.71-0.1
		l0.27-0.13l0.56-0.56c0.22-0.33,0.36-0.67,0.42-1.01c0.08-0.49-0.02-0.94-0.28-1.32l-0.35-0.34l-0.33-0.19
		c-0.92-0.34-1.57,0.02-1.86,0.18l0.01,0.04l-0.33,0.12l-0.23,0.17L360.52,385.13z"/>
	<path class="st0" d="M170.53,150.13l0.03-0.33l-0.27-0.78l-0.22-0.26l-0.71-0.41l-0.56-0.09l-0.82,0.16l-0.29,0.18l-0.52,0.73
		l-0.03,0.15c-0.08,0.45,0.04,0.79,0.08,0.9l0.06-0.02l0.04,0.29l0.17,0.31l0.65,0.54c0.56,0.19,1.12,0.15,1.58-0.13
		C170.15,151.12,170.44,150.68,170.53,150.13z"/>
	<path class="st0" d="M253.86,325.36c0.47-0.14,0.86-0.52,1.06-1.14l0.04-0.26c0.04-1.11-0.73-2.01-1.84-2.16l-0.85,0.22l-0.29,0.22
		l-0.46,0.75l-0.11,0.68l0.25,0.94l0.25,0.3l0.33,0.17l-0.05,0.06c0.12,0.09,0.43,0.33,0.94,0.38l0.7-0.15L253.86,325.36z"/>
	<path class="st0" d="M139.49,235.77l0.01,0.02c0.7-0.17,1-0.64,1.12-0.92c0.12-0.17,0.21-0.38,0.26-0.6l-0.23-0.96l-0.25-0.31
		l-0.9-0.44c-1.17-0.03-1.7,0.6-1.91,0.97l-0.05,1.06l0.04,0.08l-0.03,0.03c0.16,0.68,0.62,0.98,0.88,1.1l1.04-0.03L139.49,235.77z"
		/>
	<path class="st0" d="M311.54,338.81l-0.93-1.31c0.08,0.04,0.14,0.09,0.18,0.14c-0.17-0.24-0.61-0.88-1.45-0.9l-0.51,0.1
		c-0.49,0.22-0.83,0.58-0.99,1.04l-0.35,0.25c-0.21,1.25,0.78,2.32,1.8,2.49c0.5,0.08,0.99-0.03,1.39-0.31
		C310.99,340.09,311.4,339.65,311.54,338.81z"/>
	<path class="st0" d="M243.84,374.01c-0.04,0.23-0.04,0.48,0,0.76l0.35,0.67l0.23,0.22l0.53,0.29c0.2,0.11,0.61,0.33,1.25,0.31
		l0.62-0.2l0.23-0.15l0.32-0.32c0.13-0.14,0.44-0.48,0.54-1.05l0.03-0.36l-0.28-0.62c-0.16-0.89-0.81-1.2-1.11-1.29l-0.51,0.03
		c-0.02-0.01-0.05-0.01-0.07-0.02l-0.72,0.06l-0.28,0.12l-0.6,0.52C244.23,373.14,243.93,373.46,243.84,374.01z"/>
	<path class="st0" d="M224.79,309.15c1.09-0.19,1.73-1.18,1.88-2.08c0.16-0.96-0.2-1.86-0.94-2.33l-1.36,0.06l-0.38,0.3l-0.36,0.46
		c0.08-0.19,0.2-0.31,0.2-0.32c0,0-0.01,0-0.02,0.01c-0.3,0.22-1.02,0.72-1.19,1.75l-0.02,0.11l0.18,0.82l0.15,0.23
		c0.43,0.87,1.21,1.01,1.63,1.01L224.79,309.15z"/>
	<path class="st0" d="M265.31,450.25l-0.08,0.45l0.26,0.95l0.25,0.3l0.84,0.42c1.04,0.13,1.62-0.49,1.8-1.06l-0.07-0.43l0.03,0
		c0.13-0.77-0.23-1.24-0.46-1.45c-0.4-0.36-0.95-0.49-1.52-0.34l-0.57,0.34l-0.19,0.21L265.31,450.25z"/>
	<path class="st0" d="M263.48,263.64l0.37,0.42l0.32,0.21c0.58,0.25,1.23,0.22,1.78-0.07c0.56-0.31,0.96-0.89,1.07-1.55
		c0.1-0.6-0.06-1.18-0.42-1.59c-0.39-0.44-0.96-0.68-1.61-0.66l-0.29,0.04l-0.2,0.06c-0.63,0.26-1.09,0.9-1.23,1.71
		C263.18,262.74,263.25,263.24,263.48,263.64z"/>
	<path class="st0" d="M75.81,313.86l-0.07-0.92l-0.28-0.52c-0.08-0.12-0.3-0.42-0.72-0.62l-0.83-0.06l-0.33,0.1l-0.64,0.48
		l-0.25,0.63c-0.14,0.86,0.4,1.71,1.25,1.94C74.74,315.08,75.54,314.64,75.81,313.86z"/>
	<path class="st0" d="M288.89,187.5l0.36-0.25c0.08-0.49-0.03-0.98-0.32-1.38c-0.3-0.43-0.78-0.72-1.32-0.81
		c-1.03-0.17-2.19,0.44-2.44,1.92l0.97,1.36l0.1,0.02l0.01,0.01c0.25,0.11,0.63,0.28,1.18,0.31l0.73-0.21
		C288.57,188.15,288.78,187.8,288.89,187.5z"/>
	<path class="st0" d="M270.84,151.53c0.02-0.1,0.03-0.21,0.04-0.32l-0.24-0.83l-0.22-0.28l-0.74-0.44l-0.56-0.09l-0.96,0.27
		l-0.3,0.26l-0.17,0.32l-0.02-0.02c-0.13,0.13-0.47,0.47-0.57,1.07l0.16,0.81l0.18,0.29l0.03,0.25l0.26,0.35l1.01,0.49
		C269.17,153.63,270.53,153.42,270.84,151.53z"/>
	<path class="st0" d="M255.23,214.19l0.28-0.2c0.1-0.1,0.41-0.4,0.5-0.93l0.02-0.21l-0.33-0.9l-0.25-0.26l-0.75-0.36
		c-1.06-0.16-1.65,0.47-1.84,1.06l0.11,0.86l-0.03,0.02c0.16,0.74,0.66,1.04,0.94,1.16l0.98-0.04L255.23,214.19z"/>
	<path class="st0" d="M205.66,141.24l-0.24,0.02c-0.73-0.23-1.17-0.94-1.05-1.69l0.88,0.15l-0.26-0.14l0.55,0.18l0.03-0.04
		l-0.08-0.16l0.19,0.01l0.12-0.15l-0.18-0.33c-0.11,0.08-0.19,0.18-0.24,0.27l-0.14-0.29l0.29-0.14l-0.29-0.55
		c0.51-0.27,1.08-0.31,1.56-0.1l0.69,0.71l0.18,0.71c-0.04,0.61-0.29,1.07-0.74,1.36C206.69,141.22,206.26,141.39,205.66,141.24
		L205.66,141.24z M206.04,139.33l-0.01,0.02c0.1-0.02,0.21-0.03,0.32,0.02l0.16,0.25c0,0.05-0.02,0.07-0.02,0.11l0.21,0.19
		c0.05-0.4-0.19-0.74-0.48-0.87l0.02-0.09c-0.05-0.01-0.12-0.02-0.19-0.01L206.04,139.33z"/>
	<path class="st0" d="M199.53,197.17l0.29-0.61c-0.03,0.06-0.08,0.13-0.14,0.19l0.36-0.89l-0.01-0.38l-0.41-0.86
		c-0.53-0.45-1.15-0.66-1.75-0.6l0.11,1.12c-0.11,0.13-0.2,0.27-0.27,0.42l-0.02,0l0,0.06c0,0,0,0.01-0.01,0.01l-0.15,0.25l0,0l0,0
		l-0.62,1c-0.18-0.11-0.27-0.24-0.27-0.24c0,0,0,0,0,0.01c0.6,1.16,1.63,1.25,2.39,0.94L199.53,197.17z"/>
	<path class="st0" d="M238.83,92.65l-0.07,0.5c0.12,1.52,1.18,1.95,1.8,2.1l0.25,0.02c0.9-0.04,1.61-0.67,1.76-1.59
		c0.09-0.56-0.03-1.17-0.33-1.63l-0.4-0.38l-0.21-0.12l-0.51-0.16l-0.22-0.02c-0.73-0.07-1.19,0.1-1.73,0.63l-0.28,0.43
		L238.83,92.65z"/>
	<path class="st0" d="M215.16,174.01l-0.14-0.53c0-0.94-0.58-1.45-1.13-1.61l-0.47-0.04l-0.21,0.02l-0.26,0.12l-0.87,0.12
		c-0.36,0.26-0.61,0.65-0.69,1.11c-0.07,0.42,0.01,0.8,0.08,1.16l0.29,0.56l0.19,0.2l0.56,0.34c0.27,0.07,1.08,0.29,1.82-0.18
		C214.77,175.01,215.07,174.56,215.16,174.01z"/>
	<path class="st0" d="M116.04,367.25l0.63-0.52c0.11-0.13,0.21-0.26,0.3-0.42l0.07-1.04l-0.15-0.37l-0.75-0.68
		c-1.15-0.34-2.01,0.29-2.27,1.09l0.1,0.9l-0.02,0.02c0.17,0.71,0.66,1.01,0.93,1.12l0.84,0.02L116.04,367.25z"/>
	<path class="st0" d="M327.71,221.5l0.23-0.04l0.51-0.22c0.45-0.34,0.75-0.84,0.85-1.41c0.1-0.58-0.04-1.17-0.38-1.63
		c-0.36-0.48-0.9-0.79-1.51-0.87l-1,0.35l-0.2,0.21l-0.11,0.03l-0.32,0.29l-0.37,1.05c0.23,1.45,1.08,2,1.76,2.21L327.71,221.5z"/>
	<path class="st0" d="M204.32,229.24l0.93,0.13l0.14-0.04c0.59-0.04,1.1-0.43,1.3-1.03l-0.01-0.12c0.08-0.12,0.16-0.26,0.22-0.45
		l0.04-0.56l-0.04-0.24l-0.23-0.52c-0.28-0.36-0.61-0.56-1.01-0.8l-0.66-0.17l-0.3,0.01l-0.66,0.24c-0.53,0.4-0.68,0.86-0.75,1.09
		c0.03-0.08,0.09-0.19,0.15-0.24l-0.36,0.76l-0.02,0.35l0.24,0.8C203.59,228.8,203.92,229,204.32,229.24z"/>
	<path class="st0" d="M197.86,306.26l-0.04-0.46l-0.79-1.02c-0.29-0.14-0.97-0.46-1.74-0.13c-0.43,0.2-0.76,0.56-0.91,1.02
		l-0.05,0.55l0.04,0.23l0.21,0.51c0.64,0.89,2.05,0.83,2.74,0.4L197.86,306.26z"/>
	<path class="st0" d="M106.78,217.67c0.04-0.23,0.02-0.46-0.04-0.68l0.01-0.54c-0.44-0.83-1.13-1-1.37-1.04l-0.6-0.17l-0.27,0
		l-0.6,0.16c-0.46,0.26-0.77,0.71-0.86,1.23c-0.04,0.24-0.03,0.44,0,0.41l0.03,0.01l-0.06,0.34l0.29,0.99
		c0.58,0.64,1.58,0.77,2.27,0.56C106.24,218.76,106.68,218.28,106.78,217.67z"/>
	<path class="st0" d="M138.21,173.86l0.44-0.34c0.14-0.17,0.32-0.45,0.39-0.85c0.01-0.05,0.01-0.09,0.01-0.11l-0.03-0.01l0.09-0.54
		l-0.06-0.32l-0.39-0.69c-0.81-0.7-1.56-0.63-1.92-0.53c-0.38,0.09-1.08,0.4-1.45,1.39l0.02,0.88l0.14,0.33l0.71,0.67
		c0.27,0.12,0.68,0.31,1.29,0.33l0.54-0.11L138.21,173.86z"/>
</g>
</svg>
